<svg width="115" height="125" viewBox="0 0 115 125" fill="none" xmlns="http://www.w3.org/2000/svg">
<path opacity="0.253397" fill-rule="evenodd" clip-rule="evenodd" d="M20.5323 89.3528C20.5323 89.3528 21.1082 86.1717 23.373 93.6524C25.6378 101.133 51.247 117.506 59.8195 104.246C68.392 90.9864 80.5117 105.866 88.8837 101.886C97.2557 97.9066 98.5818 92.6546 92.3415 79.9996C86.1012 67.3447 101.451 51.9241 86.1501 42.0102C70.8487 32.0963 82.6944 34.5318 82.6944 34.5318L82.6164 75.007L62.1341 93.5764L20.5323 89.3528Z" fill="url(#paint0_linear_1_2576)"/>
<path opacity="0.518059" fill-rule="evenodd" clip-rule="evenodd" d="M81.2609 49.9565C81.2609 49.9565 79.4817 49.853 83.4216 48.0882C87.3615 46.3234 94.5932 31.0012 86.7616 27.1452C78.93 23.2892 86.2534 15.5536 83.5123 11.1784C80.7712 6.8033 77.8086 6.42421 71.3059 10.7464C64.8032 15.0686 52.2582 3.52445 47.8655 12.6882C43.4728 21.852 50.9343 10.7262 50.9343 10.7262L69.2298 16.4818L80.7686 26.5856L81.2609 49.9565Z" fill="url(#paint1_linear_1_2576)"/>
<path d="M25.5943 55.6603V54.0043L29.3863 48.5803H31.6783V53.8843H32.6623V55.6603H31.6783V57.2203H29.6263V55.6603H25.5943ZM29.7703 50.8363L27.7543 53.8843H29.7703V50.8363ZM33.6674 52.7203C33.6674 51.3443 33.9314 50.2603 34.4594 49.4683C34.9954 48.6763 35.8554 48.2803 37.0394 48.2803C38.2234 48.2803 39.0794 48.6763 39.6074 49.4683C40.1434 50.2603 40.4114 51.3443 40.4114 52.7203C40.4114 54.1123 40.1434 55.2043 39.6074 55.9963C39.0794 56.7883 38.2234 57.1843 37.0394 57.1843C35.8554 57.1843 34.9954 56.7883 34.4594 55.9963C33.9314 55.2043 33.6674 54.1123 33.6674 52.7203ZM38.3954 52.7203C38.3954 51.9123 38.3074 51.2923 38.1314 50.8603C37.9554 50.4203 37.5914 50.2003 37.0394 50.2003C36.4874 50.2003 36.1234 50.4203 35.9474 50.8603C35.7714 51.2923 35.6834 51.9123 35.6834 52.7203C35.6834 53.2643 35.7154 53.7163 35.7794 54.0763C35.8434 54.4283 35.9714 54.7163 36.1634 54.9403C36.3634 55.1563 36.6554 55.2643 37.0394 55.2643C37.4234 55.2643 37.7114 55.1563 37.9034 54.9403C38.1034 54.7163 38.2354 54.4283 38.2994 54.0763C38.3634 53.7163 38.3954 53.2643 38.3954 52.7203ZM41.4955 52.7203C41.4955 51.3443 41.7595 50.2603 42.2875 49.4683C42.8235 48.6763 43.6835 48.2803 44.8675 48.2803C46.0515 48.2803 46.9075 48.6763 47.4355 49.4683C47.9715 50.2603 48.2395 51.3443 48.2395 52.7203C48.2395 54.1123 47.9715 55.2043 47.4355 55.9963C46.9075 56.7883 46.0515 57.1843 44.8675 57.1843C43.6835 57.1843 42.8235 56.7883 42.2875 55.9963C41.7595 55.2043 41.4955 54.1123 41.4955 52.7203ZM46.2235 52.7203C46.2235 51.9123 46.1355 51.2923 45.9595 50.8603C45.7835 50.4203 45.4195 50.2003 44.8675 50.2003C44.3155 50.2003 43.9515 50.4203 43.7755 50.8603C43.5995 51.2923 43.5115 51.9123 43.5115 52.7203C43.5115 53.2643 43.5435 53.7163 43.6075 54.0763C43.6715 54.4283 43.7995 54.7163 43.9915 54.9403C44.1915 55.1563 44.4835 55.2643 44.8675 55.2643C45.2515 55.2643 45.5395 55.1563 45.7315 54.9403C45.9315 54.7163 46.0635 54.4283 46.1275 54.0763C46.1915 53.7163 46.2235 53.2643 46.2235 52.7203ZM49.3237 52.7203C49.3237 51.3443 49.5877 50.2603 50.1157 49.4683C50.6517 48.6763 51.5117 48.2803 52.6957 48.2803C53.8797 48.2803 54.7357 48.6763 55.2637 49.4683C55.7997 50.2603 56.0677 51.3443 56.0677 52.7203C56.0677 54.1123 55.7997 55.2043 55.2637 55.9963C54.7357 56.7883 53.8797 57.1843 52.6957 57.1843C51.5117 57.1843 50.6517 56.7883 50.1157 55.9963C49.5877 55.2043 49.3237 54.1123 49.3237 52.7203ZM54.0517 52.7203C54.0517 51.9123 53.9637 51.2923 53.7877 50.8603C53.6117 50.4203 53.2477 50.2003 52.6957 50.2003C52.1437 50.2003 51.7797 50.4203 51.6037 50.8603C51.4277 51.2923 51.3397 51.9123 51.3397 52.7203C51.3397 53.2643 51.3717 53.7163 51.4357 54.0763C51.4997 54.4283 51.6277 54.7163 51.8197 54.9403C52.0197 55.1563 52.3117 55.2643 52.6957 55.2643C53.0797 55.2643 53.3677 55.1563 53.5597 54.9403C53.7597 54.7163 53.8917 54.4283 53.9557 54.0763C54.0197 53.7163 54.0517 53.2643 54.0517 52.7203ZM57.1518 52.7203C57.1518 51.3443 57.4158 50.2603 57.9438 49.4683C58.4798 48.6763 59.3398 48.2803 60.5238 48.2803C61.7078 48.2803 62.5638 48.6763 63.0918 49.4683C63.6278 50.2603 63.8958 51.3443 63.8958 52.7203C63.8958 54.1123 63.6278 55.2043 63.0918 55.9963C62.5638 56.7883 61.7078 57.1843 60.5238 57.1843C59.3398 57.1843 58.4798 56.7883 57.9438 55.9963C57.4158 55.2043 57.1518 54.1123 57.1518 52.7203ZM61.8798 52.7203C61.8798 51.9123 61.7918 51.2923 61.6158 50.8603C61.4398 50.4203 61.0758 50.2003 60.5238 50.2003C59.9718 50.2003 59.6078 50.4203 59.4318 50.8603C59.2558 51.2923 59.1678 51.9123 59.1678 52.7203C59.1678 53.2643 59.1998 53.7163 59.2638 54.0763C59.3278 54.4283 59.4558 54.7163 59.6478 54.9403C59.8478 55.1563 60.1398 55.2643 60.5238 55.2643C60.9078 55.2643 61.1958 55.1563 61.3878 54.9403C61.5878 54.7163 61.7198 54.4283 61.7838 54.0763C61.8478 53.7163 61.8798 53.2643 61.8798 52.7203Z" fill="url(#paint2_linear_1_2576)"/>
<circle cx="45.2256" cy="54.271" r="40.2256" stroke="#FAA9C6" stroke-width="10"/>
<path d="M42.5029 14.1377C51.788 13.5078 61.0042 16.1168 68.5812 21.5203C76.1583 26.9237 81.6273 34.7873 84.0565 43.771C86.4858 52.7548 85.7248 62.3029 81.9034 70.7885C78.082 79.2741 71.4365 86.1722 63.0993 90.3074C54.7621 94.4426 45.249 95.559 36.1809 93.4665C27.1128 91.3739 19.0508 86.2019 13.3685 78.8316C7.68631 71.4613 4.7354 62.3488 5.01863 53.0467C5.30186 43.7447 8.8017 34.8286 14.9218 27.8176" stroke="url(#paint3_linear_1_2576)" stroke-width="10" stroke-linecap="round"/>
<defs>
<linearGradient id="paint0_linear_1_2576" x1="23.6202" y1="50.9568" x2="143.616" y2="95.3234" gradientUnits="userSpaceOnUse">
<stop stop-color="#FD749B"/>
<stop offset="1" stop-color="#281AC8"/>
</linearGradient>
<linearGradient id="paint1_linear_1_2576" x1="59.2583" y1="50.6383" x2="75.9898" y2="-18.8295" gradientUnits="userSpaceOnUse">
<stop stop-color="#FD749B"/>
<stop offset="1" stop-color="#281AC8"/>
</linearGradient>
<linearGradient id="paint2_linear_1_2576" x1="12.0112" y1="51.8531" x2="21.7523" y2="80.712" gradientUnits="userSpaceOnUse">
<stop stop-color="#FC58B3"/>
<stop offset="1" stop-color="#FEAE68"/>
</linearGradient>
<linearGradient id="paint3_linear_1_2576" x1="49.7481" y1="-5.19226" x2="54.8512" y2="155.04" gradientUnits="userSpaceOnUse">
<stop stop-color="#FD749B"/>
<stop offset="1" stop-color="#281AC8"/>
</linearGradient>
</defs>
</svg>
