<svg width="320" height="194" viewBox="0 0 320 194" fill="none" xmlns="http://www.w3.org/2000/svg">
<path d="M57.0302 174.425C59.5174 174.703 61.9685 175.242 64.3431 176.033L64.4436 176.068L64.7049 176.159C77.9736 180.893 84.0702 180.004 89.2871 178.405C103.36 174.078 111.733 155.447 134.556 159.05C144.237 160.558 152.022 162.659 158.093 166.891L158.224 166.991C159.093 167.599 159.943 168.223 160.737 168.861C172.608 176.611 184.435 166.509 187.827 164.222C188.078 164.041 188.33 162.604 188.591 162.423L188.802 162.262C203.674 151.778 227.332 141.153 250.12 143.766C289.322 148.244 305.074 192.684 305.074 192.684H12.2686C16.8422 182.175 35.1419 171.922 57.0302 174.425Z" fill="#E3CDC9"/>
<path d="M298.062 101.061C299.611 101.061 300.867 99.7869 300.867 98.2158C300.867 96.6447 299.611 95.3711 298.062 95.3711C296.513 95.3711 295.258 96.6447 295.258 98.2158C295.258 99.7869 296.513 101.061 298.062 101.061Z" stroke="white" stroke-width="1.09" stroke-miterlimit="10"/>
<path d="M168.442 31.5053C168.434 31.8017 168.339 32.0891 168.168 32.3317C167.998 32.5744 167.76 32.7613 167.484 32.8693C167.208 32.9773 166.906 33.0015 166.616 32.9388C166.326 32.8762 166.061 32.7295 165.854 32.5171C165.648 32.3048 165.508 32.0361 165.453 31.7448C165.398 31.4534 165.43 31.1523 165.545 30.8792C165.66 30.606 165.854 30.3728 166.101 30.2089C166.348 30.0449 166.638 29.9574 166.934 29.9573C167.338 29.9652 167.723 30.1321 168.006 30.4218C168.288 30.7116 168.445 31.1008 168.442 31.5053Z" stroke="white" stroke-width="1.09" stroke-miterlimit="10"/>
<path d="M37.062 23.1977H102.44C102.44 23.1977 102.129 20.5992 94.8611 18.5235C87.5935 16.4477 82.3866 21.7703 74.1741 18.5235C65.9616 15.2767 61.6091 10.6226 51.0293 13.216C40.4495 15.8094 37.062 23.1977 37.062 23.1977Z" stroke="#FAFAFA" stroke-width="1.1" stroke-linecap="round" stroke-linejoin="round"/>
<path d="M244.335 46.127H278.145C278.145 46.127 277.979 44.4935 274.225 43.1868C270.47 41.88 267.771 45.2273 263.524 43.1868C259.277 41.1462 257.026 38.216 251.557 39.8495C249.971 40.3102 248.503 41.1102 247.256 42.1941C246.009 43.278 245.012 44.6199 244.335 46.127V46.127Z" stroke="#FAFAFA" stroke-width="1.1" stroke-linecap="round" stroke-linejoin="round"/>
<path d="M226.374 14.4659C227.347 8.42313 223.238 2.73552 217.195 1.76222C211.152 0.788922 205.465 4.8985 204.491 10.9412C203.518 16.984 207.628 22.6716 213.67 23.6449C219.713 24.6182 225.401 20.5086 226.374 14.4659Z" fill="#FDB9B9"/>
<path d="M209.289 76.6794H94.2432V192.092H209.289V76.6794Z" fill="white"/>
<path d="M209.293 58.525V76.679H94.248V58.525C94.248 56.7922 94.9364 55.1302 96.1618 53.9049C97.3871 52.6796 99.049 51.9912 100.782 51.9912H202.765C204.497 51.9925 206.157 52.6815 207.382 53.9067C208.606 55.1319 209.293 56.793 209.293 58.525Z" fill="#8155FF"/>
<path d="M191.461 68.6788C194.45 68.6788 196.874 66.2553 196.874 63.2658C196.874 60.2763 194.45 57.8528 191.461 57.8528C188.471 57.8528 186.048 60.2763 186.048 63.2658C186.048 66.2553 188.471 68.6788 191.461 68.6788Z" fill="#2B4183"/>
<path d="M191.461 65.301C192.283 65.301 193.072 64.9743 193.654 64.3928C194.235 63.8112 194.562 63.0224 194.562 62.2V48.1875C194.562 47.365 194.235 46.5763 193.654 45.9947C193.072 45.4131 192.283 45.0864 191.461 45.0864C190.638 45.0864 189.85 45.4131 189.268 45.9947C188.687 46.5763 188.36 47.365 188.36 48.1875V62.2C188.36 63.0224 188.687 63.8112 189.268 64.3928C189.85 64.9743 190.638 65.301 191.461 65.301Z" fill="#FFCB2D"/>
<path d="M153.263 68.6788C156.253 68.6788 158.676 66.2553 158.676 63.2658C158.676 60.2763 156.253 57.8528 153.263 57.8528C150.274 57.8528 147.85 60.2763 147.85 63.2658C147.85 66.2553 150.274 68.6788 153.263 68.6788Z" fill="#2B4183"/>
<path d="M153.263 65.301C154.086 65.301 154.875 64.9745 155.458 64.3931C156.04 63.8117 156.368 63.0229 156.369 62.2V48.1875C156.368 47.3646 156.04 46.5758 155.458 45.9944C154.875 45.413 154.086 45.0864 153.263 45.0864C152.441 45.0864 151.652 45.4131 151.07 45.9947C150.489 46.5763 150.162 47.365 150.162 48.1875V62.2C150.162 63.0224 150.489 63.8112 151.07 64.3928C151.652 64.9743 152.441 65.301 153.263 65.301Z" fill="#FFCB2D"/>
<path d="M115.066 68.6788C118.055 68.6788 120.479 66.2553 120.479 63.2658C120.479 60.2763 118.055 57.8528 115.066 57.8528C112.076 57.8528 109.653 60.2763 109.653 63.2658C109.653 66.2553 112.076 68.6788 115.066 68.6788Z" fill="#2B4183"/>
<path d="M115.071 65.301C115.893 65.301 116.682 64.9743 117.264 64.3928C117.845 63.8112 118.172 63.0224 118.172 62.2V48.1875C118.172 47.365 117.845 46.5763 117.264 45.9947C116.682 45.4131 115.893 45.0864 115.071 45.0864C114.248 45.0864 113.459 45.413 112.876 45.9944C112.294 46.5758 111.966 47.3646 111.965 48.1875V62.2C111.966 63.0229 112.294 63.8117 112.876 64.3931C113.459 64.9745 114.248 65.301 115.071 65.301Z" fill="#FFCB2D"/>
<path d="M170.417 117.104H192.291V95.2308H170.417V117.104Z" stroke="#F0E0DF" stroke-width="2.21" stroke-miterlimit="10"/>
<path d="M141.316 117.104H163.189V95.2308H141.316V117.104Z" stroke="#F0E0DF" stroke-width="2.21" stroke-miterlimit="10"/>
<path d="M112.211 117.104H134.084V95.2308H112.211V117.104Z" stroke="#F0E0DF" stroke-width="2.21" stroke-miterlimit="10"/>
<path d="M170.417 144.867H192.291V122.994H170.417V144.867Z" stroke="#F0E0DF" stroke-width="2.21" stroke-miterlimit="10"/>
<path d="M141.316 144.867H163.189V122.994H141.316V144.867Z" stroke="#F0E0DF" stroke-width="2.21" stroke-miterlimit="10"/>
<path d="M112.211 144.867H134.084V122.994H112.211V144.867Z" fill="#F88AA0"/>
<path d="M120.117 130.805L126.178 137.057" stroke="white" stroke-width="2.02" stroke-miterlimit="10"/>
<path d="M126.178 130.805L120.117 137.057" stroke="white" stroke-width="2.02" stroke-miterlimit="10"/>
<path d="M170.417 172.636H192.291V150.763H170.417V172.636Z" stroke="#F0E0DF" stroke-width="2.21" stroke-miterlimit="10"/>
<path d="M141.316 172.636H163.189V150.763H141.316V172.636Z" stroke="#F0E0DF" stroke-width="2.21" stroke-miterlimit="10"/>
<path d="M112.211 172.636H134.084V150.763H112.211V172.636Z" stroke="#F0E0DF" stroke-width="2.21" stroke-miterlimit="10"/>
<path d="M207.318 116.042H196.673V123.054H207.318V116.042Z" fill="#FFA80A"/>
<path d="M208.956 117.863H195.034C194.273 117.863 193.543 117.56 193.005 117.022C192.467 116.484 192.165 115.754 192.165 114.993C192.164 114.616 192.238 114.242 192.382 113.893C192.525 113.544 192.737 113.227 193.003 112.96C193.27 112.693 193.586 112.481 193.935 112.337C194.284 112.192 194.657 112.118 195.034 112.118H208.956C209.719 112.118 210.45 112.421 210.989 112.96C211.528 113.499 211.831 114.23 211.831 114.993C211.83 115.754 211.527 116.484 210.988 117.022C210.449 117.56 209.718 117.863 208.956 117.863Z" fill="#FFCB2D"/>
<path d="M176.187 126.678L170.184 132.681L174.417 136.913L180.419 130.911L176.187 126.678Z" fill="#FFA80A"/>
<path d="M178.077 126.437L169.693 134.821C169.287 135.226 168.737 135.454 168.163 135.454C167.589 135.454 167.039 135.226 166.633 134.821C166.227 134.414 166 133.864 166 133.29C166 132.716 166.227 132.166 166.633 131.76L175.016 123.376C175.422 122.971 175.973 122.743 176.546 122.743C177.12 122.743 177.671 122.971 178.077 123.376C178.482 123.782 178.71 124.333 178.71 124.907C178.71 125.481 178.482 126.031 178.077 126.437Z" fill="#FFCB2D"/>
<path d="M201.869 191.997C221.741 191.997 237.851 175.888 237.851 156.016C237.851 136.144 221.741 120.035 201.869 120.035C181.998 120.035 165.888 136.144 165.888 156.016C165.888 175.888 181.998 191.997 201.869 191.997Z" fill="#F67B91"/>
<path d="M201.87 190.06C220.673 190.06 235.916 174.817 235.916 156.014C235.916 137.211 220.673 121.968 201.87 121.968C183.067 121.968 167.824 137.211 167.824 156.014C167.824 174.817 183.067 190.06 201.87 190.06Z" fill="#F88AA0"/>
<path d="M201.87 186.216C218.549 186.216 232.071 172.695 232.071 156.015C232.071 139.335 218.549 125.814 201.87 125.814C185.19 125.814 171.668 139.335 171.668 156.015C171.668 172.695 185.19 186.216 201.87 186.216Z" fill="#F6F6F6"/>
<path d="M202.021 132.619C201.82 132.618 201.628 132.537 201.485 132.395C201.343 132.253 201.263 132.061 201.262 131.86V130.076C201.283 129.891 201.372 129.72 201.511 129.597C201.65 129.473 201.829 129.404 202.016 129.404C202.202 129.404 202.381 129.473 202.521 129.597C202.66 129.72 202.748 129.891 202.77 130.076V131.86C202.77 132.06 202.691 132.251 202.551 132.393C202.411 132.535 202.22 132.617 202.021 132.619Z" fill="#8054FF"/>
<path d="M202.02 183.08C201.819 183.079 201.626 182.998 201.483 182.854C201.341 182.711 201.261 182.518 201.261 182.316V180.537C201.249 180.43 201.259 180.323 201.292 180.221C201.324 180.119 201.377 180.025 201.449 179.945C201.52 179.865 201.607 179.801 201.705 179.757C201.802 179.713 201.908 179.691 202.015 179.691C202.122 179.691 202.228 179.713 202.326 179.757C202.423 179.801 202.511 179.865 202.582 179.945C202.653 180.025 202.707 180.119 202.739 180.221C202.771 180.323 202.781 180.43 202.769 180.537V182.316C202.771 182.516 202.693 182.709 202.552 182.852C202.412 182.995 202.221 183.077 202.02 183.08Z" fill="#8054FF"/>
<path d="M184.812 139.745C184.611 139.744 184.418 139.665 184.274 139.524L183.018 138.262C182.875 138.12 182.795 137.926 182.795 137.724C182.795 137.523 182.875 137.329 183.018 137.187C183.16 137.044 183.354 136.964 183.555 136.964C183.757 136.964 183.951 137.044 184.093 137.187L185.355 138.448C185.426 138.519 185.482 138.602 185.52 138.695C185.558 138.787 185.578 138.886 185.578 138.986C185.578 139.086 185.558 139.185 185.52 139.277C185.482 139.369 185.426 139.453 185.355 139.524C185.21 139.666 185.015 139.746 184.812 139.745Z" fill="#8054FF"/>
<path d="M220.492 175.425C220.392 175.426 220.293 175.407 220.2 175.369C220.108 175.331 220.024 175.275 219.954 175.204L218.702 173.943C218.56 173.8 218.479 173.607 218.479 173.405C218.479 173.203 218.56 173.01 218.702 172.867C218.845 172.724 219.038 172.644 219.24 172.644C219.442 172.644 219.635 172.724 219.778 172.867L221.039 174.129C221.11 174.199 221.166 174.283 221.205 174.375C221.243 174.467 221.263 174.566 221.263 174.666C221.263 174.766 221.243 174.865 221.205 174.958C221.166 175.05 221.11 175.134 221.039 175.204C220.968 175.276 220.882 175.333 220.788 175.371C220.694 175.409 220.593 175.427 220.492 175.425Z" fill="#8054FF"/>
<path d="M183.55 175.426C183.45 175.424 183.351 175.402 183.26 175.362C183.168 175.321 183.086 175.262 183.017 175.189C182.947 175.119 182.89 175.035 182.852 174.943C182.814 174.851 182.794 174.752 182.794 174.652C182.794 174.552 182.814 174.453 182.852 174.361C182.89 174.268 182.947 174.184 183.017 174.114L184.279 172.852C184.422 172.71 184.615 172.63 184.817 172.63C185.018 172.63 185.212 172.71 185.354 172.852C185.497 172.995 185.577 173.188 185.577 173.39C185.577 173.592 185.497 173.785 185.354 173.928L184.088 175.189C184.019 175.263 183.936 175.322 183.843 175.363C183.751 175.403 183.651 175.425 183.55 175.426Z" fill="#8054FF"/>
<path d="M219.23 139.745C219.029 139.737 218.84 139.65 218.702 139.504C218.631 139.434 218.575 139.35 218.537 139.258C218.498 139.165 218.479 139.066 218.479 138.966C218.479 138.866 218.498 138.768 218.537 138.675C218.575 138.583 218.631 138.499 218.702 138.429L219.963 137.167C220.106 137.024 220.3 136.944 220.501 136.944C220.703 136.944 220.896 137.024 221.039 137.167C221.182 137.31 221.262 137.503 221.262 137.705C221.262 137.907 221.182 138.1 221.039 138.243L219.767 139.504C219.698 139.578 219.615 139.638 219.523 139.679C219.431 139.721 219.331 139.743 219.23 139.745Z" fill="#8054FF"/>
<path d="M177.685 156.955H175.9C175.794 156.967 175.686 156.957 175.584 156.924C175.482 156.892 175.388 156.839 175.308 156.767C175.228 156.696 175.164 156.609 175.121 156.511C175.077 156.414 175.054 156.308 175.054 156.201C175.054 156.094 175.077 155.988 175.121 155.89C175.164 155.793 175.228 155.705 175.308 155.634C175.388 155.563 175.482 155.51 175.584 155.477C175.686 155.445 175.794 155.435 175.9 155.447H177.685C177.87 155.468 178.04 155.557 178.164 155.696C178.288 155.835 178.356 156.015 178.356 156.201C178.356 156.387 178.288 156.567 178.164 156.706C178.04 156.845 177.87 156.933 177.685 156.955Z" fill="#8054FF"/>
<path d="M228.141 156.955H226.357C226.251 156.967 226.143 156.957 226.041 156.924C225.939 156.892 225.845 156.839 225.765 156.767C225.685 156.696 225.621 156.609 225.577 156.511C225.533 156.414 225.511 156.308 225.511 156.201C225.511 156.094 225.533 155.988 225.577 155.89C225.621 155.793 225.685 155.705 225.765 155.634C225.845 155.563 225.939 155.51 226.041 155.477C226.143 155.445 226.251 155.435 226.357 155.447H228.141C228.247 155.435 228.355 155.445 228.457 155.477C228.559 155.51 228.653 155.563 228.733 155.634C228.813 155.705 228.877 155.793 228.921 155.89C228.965 155.988 228.987 156.094 228.987 156.201C228.987 156.308 228.965 156.414 228.921 156.511C228.877 156.609 228.813 156.696 228.733 156.767C228.653 156.839 228.559 156.892 228.457 156.924C228.355 156.957 228.247 156.967 228.141 156.955Z" fill="#8054FF"/>
<path d="M203.835 155.91H200.206V140.174C200.206 139.693 200.397 139.231 200.737 138.891C201.078 138.551 201.539 138.359 202.02 138.359C202.259 138.359 202.495 138.405 202.716 138.496C202.936 138.587 203.136 138.721 203.305 138.889C203.474 139.058 203.607 139.258 203.698 139.479C203.789 139.699 203.835 139.935 203.835 140.174V155.91Z" fill="#8054FF"/>
<path d="M202.02 160.071C204.319 160.071 206.182 158.207 206.182 155.909C206.182 153.611 204.319 151.748 202.02 151.748C199.722 151.748 197.859 153.611 197.859 155.909C197.859 158.207 199.722 160.071 202.02 160.071Z" fill="#2B4183"/>
<path d="M275.546 170.666L265.6 166.032L269.188 160.438L280.004 165.695L276.828 170.118L275.546 170.666Z" fill="#FA849B"/>
<path d="M277.536 163.525C277.536 163.525 276.169 169.621 271.43 169.501L270.264 183.92L283.402 165.59L277.536 163.525Z" fill="#181F42"/>
<path d="M273.36 184.819L286.44 166.552L284.714 165.316L271.634 183.583L273.36 184.819Z" fill="white"/>
<path d="M271.274 171.384C272.147 171.104 273.061 170.97 273.978 170.987" stroke="white" stroke-width="1.55" stroke-linecap="round" stroke-linejoin="round"/>
<path d="M270.972 173.5C271.846 173.223 272.759 173.089 273.676 173.103" stroke="white" stroke-width="1.55" stroke-linecap="round" stroke-linejoin="round"/>
<path d="M270.661 175.616C271.535 175.339 272.448 175.205 273.365 175.219" stroke="white" stroke-width="1.55" stroke-linecap="round" stroke-linejoin="round"/>
<path d="M252.457 110.102C252.457 110.102 245.953 134.363 244.998 139.142C244.043 143.922 242.128 153.492 246.144 156.939C250.16 160.387 265.6 168.655 265.6 168.655L271.274 158.462L262.082 152.934L252.457 110.102Z" fill="#243B77"/>
<path d="M261.222 187.247L259.192 176.462L265.826 176.12L267.857 187.971H262.414L261.222 187.247Z" fill="#FA849B"/>
<path d="M268.188 184.705C268.188 184.705 262.429 187.147 259.77 183.232L247.351 190.675H269.902L268.188 184.705Z" fill="#181F42"/>
<path d="M247.376 192.806H269.927V190.675H247.376V192.806Z" fill="white"/>
<path d="M258.151 184.196C258.887 184.743 259.529 185.407 260.051 186.161" stroke="white" stroke-width="1.55" stroke-linecap="round" stroke-linejoin="round"/>
<path d="M256.251 185.175C256.986 185.726 257.627 186.391 258.151 187.145" stroke="white" stroke-width="1.55" stroke-linecap="round" stroke-linejoin="round"/>
<path d="M254.352 186.161C255.087 186.708 255.729 187.372 256.251 188.126" stroke="white" stroke-width="1.55" stroke-linecap="round" stroke-linejoin="round"/>
<path d="M252.456 110.102L251.808 146.696C251.788 148.01 251.893 149.323 252.12 150.617L257.558 178.838H268.962L265.785 147.008C265.921 141.153 267.866 134.599 268.59 127.457C268.59 127.457 270.821 114.213 264.705 110.167L252.456 110.102Z" fill="#2B4183"/>
<path d="M245.174 105.081L226.578 98.2705L224.412 101.894L242.551 111.504C243.238 111.767 243.982 111.842 244.708 111.721C245.434 111.601 246.115 111.29 246.68 110.82C247.246 110.35 247.677 109.737 247.928 109.046C248.179 108.355 248.242 107.609 248.109 106.885C247.853 105.428 246.571 105.578 245.174 105.081Z" fill="#FA849B"/>
<path d="M224.286 95.5116C224.122 95.3377 223.916 95.209 223.689 95.1377C223.461 95.0664 223.218 95.0549 222.984 95.1045C222.85 95.1324 222.725 95.1934 222.62 95.2819C222.515 95.3705 222.434 95.4838 222.384 95.6116C222.334 95.7393 222.317 95.8776 222.334 96.0137C222.351 96.1498 222.402 96.2795 222.482 96.3911L222.748 96.8284C222.155 97.0596 220.919 97.1149 218.667 94.818C218.491 94.6329 218.258 94.5125 218.006 94.476C217.753 94.4395 217.496 94.4892 217.275 94.6169C217.131 94.7152 217.03 94.8634 216.99 95.0325C216.95 95.2017 216.974 95.3796 217.059 95.5317L217.089 95.5769C216.941 95.5236 216.782 95.5045 216.626 95.5211C216.469 95.5376 216.318 95.5893 216.184 95.6724C216.04 95.7716 215.939 95.921 215.9 96.0912C215.861 96.2615 215.887 96.4402 215.973 96.5921C215.994 96.6362 216.02 96.6782 216.048 96.7178C215.898 96.7337 215.753 96.7854 215.626 96.8686C215.483 96.9668 215.382 97.1154 215.342 97.2848C215.303 97.4542 215.329 97.6321 215.415 97.7833C215.463 97.8824 215.528 97.9724 215.606 98.0497L215.697 98.1351L215.651 98.1603C215.51 98.26 215.41 98.4085 215.371 98.5773C215.332 98.7461 215.357 98.9233 215.44 99.075C215.49 99.1761 215.556 99.2679 215.636 99.3464C216.201 99.9256 216.818 100.451 217.481 100.915H217.511C217.785 101.097 218.068 101.265 218.36 101.417C219.662 102.176 222.452 101.543 224.849 101.92L226.724 98.4015L224.286 95.5116Z" fill="#FA849B"/>
<path d="M217.699 108.171L226.691 87.6272L206.147 78.6346L197.155 99.1787L217.699 108.171Z" fill="#FFCD2E"/>
<path d="M224.592 95.8836L222.768 93.7676C222.698 93.6868 222.611 93.6219 222.514 93.5775C222.417 93.533 222.312 93.51 222.205 93.51C222.098 93.51 221.992 93.533 221.895 93.5775C221.798 93.6219 221.712 93.6868 221.642 93.7676C221.546 93.879 221.485 94.0162 221.467 94.162C221.45 94.3078 221.475 94.4556 221.541 94.5868L222.461 96.4012C222.252 97.1973 222.242 98.0325 222.431 98.8335C222.62 99.6345 223.003 100.377 223.547 100.995L224.592 95.8836Z" fill="#FA849B"/>
<path d="M253.416 105.468L246.646 110.856C245.98 111.391 245.165 111.706 244.312 111.758C243.46 111.81 242.613 111.597 241.886 111.147C239.79 109.856 238.509 108.66 240.017 106.715L247.455 99.1755L253.416 105.468Z" fill="#FA849B"/>
<path d="M258.664 98.9958C258.664 98.9958 257.764 103.439 252.421 107.475L244.184 99.6995L250.868 92.261L258.664 98.9958Z" fill="#7041FD"/>
<path d="M271.516 104.87L285.835 122.919L289.076 120.768C289.076 120.768 280.859 105.473 277.044 100.664C276.585 100.088 275.981 99.6447 275.295 99.3796C274.608 99.1145 273.863 99.0372 273.136 99.1554C272.409 99.2736 271.727 99.5831 271.16 100.052C270.592 100.521 270.16 101.133 269.907 101.825C269.4 103.217 270.566 103.729 271.516 104.87Z" fill="#FA849B"/>
<path d="M286.553 126.563C286.612 126.788 286.729 126.994 286.891 127.161C287.053 127.328 287.255 127.451 287.477 127.518C287.605 127.559 287.741 127.568 287.873 127.543C288.004 127.518 288.128 127.461 288.231 127.376C288.335 127.29 288.416 127.181 288.466 127.056C288.516 126.932 288.534 126.797 288.518 126.664V126.161C289.131 126.246 290.212 126.769 291.081 129.765C291.145 130.004 291.288 130.216 291.487 130.364C291.686 130.513 291.929 130.59 292.177 130.584C292.344 130.564 292.499 130.484 292.611 130.358C292.723 130.232 292.785 130.069 292.785 129.9C292.785 129.9 292.785 129.865 292.785 129.845C292.886 129.961 293.013 130.052 293.155 130.111C293.297 130.171 293.451 130.196 293.604 130.187C293.772 130.168 293.926 130.088 294.038 129.961C294.149 129.835 294.21 129.672 294.207 129.503C294.212 129.455 294.212 129.406 294.207 129.358C294.344 129.415 294.492 129.439 294.64 129.428C294.807 129.409 294.963 129.329 295.075 129.203C295.187 129.077 295.249 128.913 295.248 128.744C295.251 128.636 295.238 128.527 295.207 128.423C295.207 128.383 295.182 128.347 295.172 128.307H295.218C295.386 128.29 295.542 128.21 295.654 128.083C295.767 127.957 295.828 127.793 295.826 127.624C295.829 127.517 295.816 127.41 295.785 127.307C295.572 126.549 295.289 125.812 294.941 125.106V125.075C294.788 124.787 294.62 124.507 294.439 124.236C293.68 122.985 291.001 122.226 289.131 120.783L285.834 122.919L286.553 126.563Z" fill="#FA849B"/>
<path d="M269.379 93.7322L275.913 99.4468C276.553 100.012 277.004 100.76 277.204 101.59C277.405 102.419 277.345 103.291 277.034 104.086C276.129 106.373 275.179 107.845 273.013 106.704L264.248 100.703L269.379 93.7322Z" fill="#FA849B"/>
<path d="M260.996 89.7466C264.913 90.0611 268.607 91.6948 271.475 94.3806L267.037 102.633L258.312 99.6177L260.996 89.7466Z" fill="#8155FF"/>
<path d="M253.929 90.2491C253.929 90.2491 248.516 91.7569 248.496 99.0044C248.496 102.97 252.456 110.112 252.456 110.112L264.679 110.177C264.679 110.177 266.474 105.196 267.549 100.698C268.625 96.1999 265.187 91.9178 261.015 89.7566L253.929 90.2491Z" fill="#8155FF"/>
<path d="M267.052 102.633L262.252 99.1904L265.957 106.358L267.052 102.633Z" fill="#7041FD"/>
<path d="M257.015 92.561C258.708 92.3097 259.312 91.1738 259.06 89.4801L257.176 79.7598L252.059 80.579L253.486 89.9525C253.546 90.3558 253.685 90.7434 253.894 91.093C254.104 91.4426 254.381 91.7473 254.709 91.9897C255.037 92.2321 255.409 92.4073 255.805 92.5053C256.2 92.6034 256.612 92.6223 257.015 92.561Z" fill="#F8879D"/>
<path d="M256.005 81.7048C256.005 81.7048 257.664 86.8867 253.266 88.6508L252.859 85.5598L257.382 82.1421" fill="#32292A"/>
<path d="M252.211 86.1983C255.407 85.8967 257.779 83.3385 257.508 80.4887L256.623 71.1504H251.241C249.23 71.3364 246.521 73.97 246.717 75.7391L247.657 81.5392C247.853 83.63 249.527 86.4546 252.211 86.1983Z" fill="#F8879D"/>
<path d="M247.878 78.1868L246.652 81.3129C246.61 81.388 246.59 81.4732 246.595 81.5589C246.599 81.6446 246.628 81.7273 246.677 81.7975C246.726 81.8678 246.795 81.9227 246.874 81.9561C246.953 81.9895 247.039 82 247.124 81.9864L249.23 81.7904L247.878 78.1868Z" fill="#F8879D"/>
<path d="M248.949 76.7139C248.949 76.7139 247.803 76.7491 247.843 77.2165C247.843 77.2165 247.883 77.5432 248.883 77.4929C249.883 77.4427 250.13 77.3421 250.185 77.0255C250.24 76.7089 249.481 76.6787 248.949 76.7139Z" fill="#312725"/>
<path d="M249.009 78.9812C249.043 79.0522 249.06 79.1302 249.058 79.2089C249.057 79.2876 249.037 79.3648 249 79.4343C248.963 79.5038 248.91 79.5637 248.846 79.6091C248.781 79.6545 248.707 79.6842 248.629 79.6957C248.552 79.7072 248.472 79.7003 248.397 79.6755C248.323 79.6507 248.255 79.6087 248.199 79.5529C248.144 79.497 248.102 79.429 248.078 79.3541C248.054 79.2793 248.047 79.1997 248.059 79.1219C248.041 78.9937 248.074 78.8637 248.15 78.7588C248.226 78.654 248.339 78.5824 248.466 78.559C248.593 78.5473 248.72 78.5843 248.821 78.6628C248.922 78.7412 248.989 78.855 249.009 78.9812Z" fill="#312725"/>
<path d="M248.642 82.62C248.909 82.5976 249.164 82.4963 249.373 82.3289C249.582 82.1616 249.737 81.9358 249.818 81.6802" stroke="#312725" stroke-width="0.6" stroke-linecap="round" stroke-linejoin="round"/>
<path d="M257.528 89.1938L260.995 89.7467C260.995 89.7467 257.352 95.6422 253.768 94.2299C249.637 92.5965 255.115 89.4954 255.115 89.4954L257.528 89.1938Z" fill="#F8879D"/>
<path d="M256.075 78.5945C255.297 78.3974 254.587 77.9934 254.02 77.4253C253.452 76.8572 253.049 76.1463 252.854 75.3678L245.692 76.7801C245.692 76.7801 244.581 69.6482 253.155 68.3012C257.452 67.6277 260.192 69.7034 261.649 71.7842C262.31 72.7744 262.707 73.9168 262.803 75.1032C262.898 76.2896 262.69 77.4809 262.197 78.5643C261.255 80.5549 259.734 82.2153 257.834 83.329L257.176 79.7605C257.176 79.7605 256.553 78.7201 256.075 78.5945Z" fill="#32292A"/>
<path d="M259.508 78.0815C259.491 78.5199 259.345 78.9436 259.089 79.2997C258.833 79.6557 258.477 79.9284 258.067 80.0834C257.656 80.2385 257.209 80.2692 256.782 80.1716C256.354 80.0741 255.964 79.8526 255.662 79.5349C255.359 79.2172 255.157 78.8173 255.081 78.3853C255.004 77.9534 255.057 77.5084 255.231 77.1061C255.406 76.7037 255.696 76.3619 256.064 76.1233C256.432 75.8847 256.863 75.7599 257.301 75.7645C257.599 75.7704 257.892 75.8351 258.164 75.955C258.437 76.0749 258.683 76.2475 258.888 76.463C259.093 76.6784 259.253 76.9324 259.36 77.2102C259.466 77.488 259.517 77.7841 259.508 78.0815Z" fill="#F8879D"/>
<path d="M256.513 78.6188C256.513 78.6188 256.513 76.9502 258.071 77.2166" stroke="#312725" stroke-width="0.6" stroke-linecap="round" stroke-linejoin="round"/>
<path d="M270.912 68.9289C271.096 70.015 270.953 71.131 270.502 72.1359C270.051 73.1409 269.313 73.9895 268.379 74.5746C267.446 75.1597 266.361 75.4549 265.26 75.4229C264.159 75.3909 263.092 75.0332 262.194 74.3949C261.297 73.7566 260.608 72.8665 260.217 71.8371C259.825 70.8077 259.747 69.6853 259.993 68.6117C260.24 67.5382 260.799 66.5617 261.6 65.8059C262.401 65.05 263.408 64.5487 264.494 64.3653C265.95 64.1208 267.444 64.464 268.647 65.3196C269.851 66.1752 270.665 67.4733 270.912 68.9289Z" fill="#32292A"/>
<path d="M319.77 192.982H0" stroke="#281F27" stroke-width="0.76" stroke-miterlimit="10"/>
</svg>
