<svg width="112" height="122" viewBox="0 0 112 122" fill="none" xmlns="http://www.w3.org/2000/svg">
<path opacity="0.253397" fill-rule="evenodd" clip-rule="evenodd" d="M19.9026 86.6112C19.9026 86.6112 20.4609 83.5276 22.6562 90.7788C24.8515 98.03 49.6751 113.901 57.9846 101.048C66.2941 88.1946 78.042 102.617 86.1571 98.7599C94.2723 94.9025 95.5577 89.8116 89.5089 77.5449C83.46 65.2782 98.3393 50.3307 83.5074 40.7209C68.6754 31.1112 80.1577 33.472 80.1577 33.472L80.0821 72.7055L60.2282 90.7052L19.9026 86.6112Z" fill="url(#paint0_linear_1_2570)"/>
<path opacity="0.518059" fill-rule="evenodd" clip-rule="evenodd" d="M78.7675 48.4239C78.7675 48.4239 77.043 48.3235 80.862 46.6129C84.681 44.9022 91.6908 30.0501 84.0995 26.3124C76.5082 22.5746 83.6069 15.0763 80.9499 10.8354C78.2929 6.59452 75.4212 6.22706 69.118 10.4166C62.8148 14.6062 50.6546 3.41626 46.3967 12.2989C42.1388 21.1816 49.3713 10.3971 49.3713 10.3971L67.1056 15.9761L78.2903 25.77L78.7675 48.4239Z" fill="url(#paint1_linear_1_2570)"/>
<path d="M32.1853 57.44V55.784L35.9773 50.36H38.2693V55.664H39.2533V57.44H38.2693V59H36.2173V57.44H32.1853ZM36.3613 52.616L34.3453 55.664H36.3613V52.616ZM40.3304 52.712C40.3624 51.856 40.6424 51.196 41.1704 50.732C41.6984 50.268 42.4144 50.036 43.3184 50.036C43.9184 50.036 44.4304 50.14 44.8544 50.348C45.2864 50.556 45.6104 50.84 45.8264 51.2C46.0504 51.56 46.1624 51.964 46.1624 52.412C46.1624 52.94 46.0304 53.372 45.7664 53.708C45.5024 54.036 45.1944 54.26 44.8424 54.38V54.428C45.2984 54.58 45.6584 54.832 45.9224 55.184C46.1864 55.536 46.3184 55.988 46.3184 56.54C46.3184 57.036 46.2024 57.476 45.9704 57.86C45.7464 58.236 45.4144 58.532 44.9744 58.748C44.5424 58.964 44.0264 59.072 43.4264 59.072C42.4664 59.072 41.6984 58.836 41.1224 58.364C40.5544 57.892 40.2544 57.18 40.2224 56.228H42.2144C42.2224 56.58 42.3224 56.86 42.5144 57.068C42.7064 57.268 42.9864 57.368 43.3544 57.368C43.6664 57.368 43.9064 57.28 44.0744 57.104C44.2504 56.92 44.3384 56.68 44.3384 56.384C44.3384 56 44.2144 55.724 43.9664 55.556C43.7264 55.38 43.3384 55.292 42.8024 55.292H42.4184V53.624H42.8024C43.2104 53.624 43.5384 53.556 43.7864 53.42C44.0424 53.276 44.1704 53.024 44.1704 52.664C44.1704 52.376 44.0904 52.152 43.9304 51.992C43.7704 51.832 43.5504 51.752 43.2704 51.752C42.9664 51.752 42.7384 51.844 42.5864 52.028C42.4424 52.212 42.3584 52.44 42.3344 52.712H40.3304ZM47.572 57.44V55.784L51.364 50.36H53.656V55.664H54.64V57.44H53.656V59H51.604V57.44H47.572ZM51.748 52.616L49.732 55.664H51.748V52.616Z" fill="url(#paint2_linear_1_2570)"/>
<circle cx="43.8381" cy="52.6061" r="38.8381" stroke="#FAA9C6" stroke-width="10"/>
<path d="M41.2094 13.857C51.4863 13.1598 61.6192 16.5737 69.379 23.3475C77.1389 30.1214 81.89 39.7004 82.5872 49.9773C83.2843 60.2542 79.8705 70.3871 73.0966 78.147C66.3228 85.9068 56.7437 90.6579 46.4669 91.3551" stroke="url(#paint3_linear_1_2570)" stroke-width="10" stroke-linecap="round"/>
<defs>
<linearGradient id="paint0_linear_1_2570" x1="22.8958" y1="49.393" x2="139.211" y2="92.3986" gradientUnits="userSpaceOnUse">
<stop stop-color="#FD749B"/>
<stop offset="1" stop-color="#281AC8"/>
</linearGradient>
<linearGradient id="paint1_linear_1_2570" x1="57.44" y1="49.0848" x2="73.6582" y2="-18.2519" gradientUnits="userSpaceOnUse">
<stop stop-color="#FD749B"/>
<stop offset="1" stop-color="#281AC8"/>
</linearGradient>
<linearGradient id="paint2_linear_1_2570" x1="11.6428" y1="53.3986" x2="21.0851" y2="81.3722" gradientUnits="userSpaceOnUse">
<stop stop-color="#FC58B3"/>
<stop offset="1" stop-color="#FEAE68"/>
</linearGradient>
<linearGradient id="paint3_linear_1_2570" x1="48.2219" y1="-5.03294" x2="53.1685" y2="150.284" gradientUnits="userSpaceOnUse">
<stop stop-color="#FD749B"/>
<stop offset="1" stop-color="#281AC8"/>
</linearGradient>
</defs>
</svg>
