<svg width="115" height="124" viewBox="0 0 115 124" fill="none" xmlns="http://www.w3.org/2000/svg">
<path opacity="0.253397" fill-rule="evenodd" clip-rule="evenodd" d="M20.3638 88.6182C20.3638 88.6182 20.935 85.4632 23.1812 92.8824C25.4274 100.302 50.8263 116.54 59.3284 103.389C67.8304 90.2383 79.8505 104.995 88.1538 101.048C96.457 97.1017 97.7722 91.8928 91.5832 79.3418C85.3942 66.7908 100.618 51.4969 85.4426 41.6645C70.2669 31.832 82.0153 34.2475 82.0153 34.2475L81.938 74.3903L61.6239 92.8071L20.3638 88.6182Z" fill="url(#paint0_linear_1_2564)"/>
<path opacity="0.518059" fill-rule="evenodd" clip-rule="evenodd" d="M80.5929 49.5462C80.5929 49.5462 78.8284 49.4435 82.7359 47.6932C86.6435 45.9429 93.8157 30.7466 86.0485 26.9222C78.2812 23.0979 85.5445 15.4258 82.8259 11.0866C80.1073 6.74742 77.169 6.37144 70.7197 10.6581C64.2704 14.9448 51.8285 3.4955 47.4719 12.584C43.1153 21.6725 50.5154 10.6381 50.5154 10.6381L68.6607 16.3464L80.1047 26.3673L80.5929 49.5462Z" fill="url(#paint1_linear_1_2564)"/>
<path d="M26.7676 50.0052V48.0972H30.0916V56.8572H27.9556V50.0052H26.7676ZM31.4953 52.3572C31.4953 50.9812 31.7593 49.8972 32.2873 49.1052C32.8233 48.3132 33.6833 47.9172 34.8673 47.9172C36.0513 47.9172 36.9073 48.3132 37.4353 49.1052C37.9713 49.8972 38.2393 50.9812 38.2393 52.3572C38.2393 53.7492 37.9713 54.8412 37.4353 55.6332C36.9073 56.4252 36.0513 56.8212 34.8673 56.8212C33.6833 56.8212 32.8233 56.4252 32.2873 55.6332C31.7593 54.8412 31.4953 53.7492 31.4953 52.3572ZM36.2233 52.3572C36.2233 51.5492 36.1353 50.9292 35.9593 50.4972C35.7833 50.0572 35.4193 49.8372 34.8673 49.8372C34.3153 49.8372 33.9513 50.0572 33.7753 50.4972C33.5993 50.9292 33.5113 51.5492 33.5113 52.3572C33.5113 52.9012 33.5433 53.3532 33.6073 53.7132C33.6713 54.0652 33.7993 54.3532 33.9913 54.5772C34.1913 54.7932 34.4833 54.9012 34.8673 54.9012C35.2513 54.9012 35.5393 54.7932 35.7313 54.5772C35.9313 54.3532 36.0633 54.0652 36.1273 53.7132C36.1913 53.3532 36.2233 52.9012 36.2233 52.3572ZM39.3235 52.3572C39.3235 50.9812 39.5875 49.8972 40.1155 49.1052C40.6515 48.3132 41.5115 47.9172 42.6955 47.9172C43.8795 47.9172 44.7355 48.3132 45.2635 49.1052C45.7995 49.8972 46.0675 50.9812 46.0675 52.3572C46.0675 53.7492 45.7995 54.8412 45.2635 55.6332C44.7355 56.4252 43.8795 56.8212 42.6955 56.8212C41.5115 56.8212 40.6515 56.4252 40.1155 55.6332C39.5875 54.8412 39.3235 53.7492 39.3235 52.3572ZM44.0515 52.3572C44.0515 51.5492 43.9635 50.9292 43.7875 50.4972C43.6115 50.0572 43.2475 49.8372 42.6955 49.8372C42.1435 49.8372 41.7795 50.0572 41.6035 50.4972C41.4275 50.9292 41.3395 51.5492 41.3395 52.3572C41.3395 52.9012 41.3715 53.3532 41.4355 53.7132C41.4995 54.0652 41.6275 54.3532 41.8195 54.5772C42.0195 54.7932 42.3115 54.9012 42.6955 54.9012C43.0795 54.9012 43.3675 54.7932 43.5595 54.5772C43.7595 54.3532 43.8915 54.0652 43.9555 53.7132C44.0195 53.3532 44.0515 52.9012 44.0515 52.3572ZM47.1516 52.3572C47.1516 50.9812 47.4156 49.8972 47.9436 49.1052C48.4796 48.3132 49.3396 47.9172 50.5236 47.9172C51.7076 47.9172 52.5636 48.3132 53.0916 49.1052C53.6276 49.8972 53.8956 50.9812 53.8956 52.3572C53.8956 53.7492 53.6276 54.8412 53.0916 55.6332C52.5636 56.4252 51.7076 56.8212 50.5236 56.8212C49.3396 56.8212 48.4796 56.4252 47.9436 55.6332C47.4156 54.8412 47.1516 53.7492 47.1516 52.3572ZM51.8796 52.3572C51.8796 51.5492 51.7916 50.9292 51.6156 50.4972C51.4396 50.0572 51.0756 49.8372 50.5236 49.8372C49.9716 49.8372 49.6076 50.0572 49.4316 50.4972C49.2556 50.9292 49.1676 51.5492 49.1676 52.3572C49.1676 52.9012 49.1996 53.3532 49.2636 53.7132C49.3276 54.0652 49.4556 54.3532 49.6476 54.5772C49.8476 54.7932 50.1396 54.9012 50.5236 54.9012C50.9076 54.9012 51.1956 54.7932 51.3876 54.5772C51.5876 54.3532 51.7196 54.0652 51.7836 53.7132C51.8476 53.3532 51.8796 52.9012 51.8796 52.3572ZM54.9797 52.3572C54.9797 50.9812 55.2437 49.8972 55.7717 49.1052C56.3077 48.3132 57.1677 47.9172 58.3517 47.9172C59.5357 47.9172 60.3917 48.3132 60.9197 49.1052C61.4557 49.8972 61.7237 50.9812 61.7237 52.3572C61.7237 53.7492 61.4557 54.8412 60.9197 55.6332C60.3917 56.4252 59.5357 56.8212 58.3517 56.8212C57.1677 56.8212 56.3077 56.4252 55.7717 55.6332C55.2437 54.8412 54.9797 53.7492 54.9797 52.3572ZM59.7077 52.3572C59.7077 51.5492 59.6197 50.9292 59.4437 50.4972C59.2677 50.0572 58.9037 49.8372 58.3517 49.8372C57.7997 49.8372 57.4357 50.0572 57.2597 50.4972C57.0837 50.9292 56.9957 51.5492 56.9957 52.3572C56.9957 52.9012 57.0277 53.3532 57.0917 53.7132C57.1557 54.0652 57.2837 54.3532 57.4757 54.5772C57.6757 54.7932 57.9677 54.9012 58.3517 54.9012C58.7357 54.9012 59.0237 54.7932 59.2157 54.5772C59.4157 54.3532 59.5477 54.0652 59.6117 53.7132C59.6757 53.3532 59.7077 52.9012 59.7077 52.3572Z" fill="url(#paint2_linear_1_2564)"/>
<circle cx="44.8541" cy="53.8248" r="39.8541" stroke="#FAA9C6" stroke-width="10"/>
<path d="M42.1566 14.0621C49.2976 13.5777 56.4373 15.0252 62.8257 18.2528C69.2141 21.4803 74.6155 26.3687 78.4624 32.4045C82.3093 38.4403 84.4597 45.4006 84.6879 52.5544C84.916 59.7082 83.2134 66.7914 79.7589 73.06C76.3044 79.3287 71.2255 84.5513 65.0558 88.1793C58.886 91.8074 51.853 93.707 44.6956 93.6785C37.5382 93.6501 30.5206 91.6946 24.3799 88.0176C18.2391 84.3407 13.2019 79.0778 9.79737 72.7819" stroke="url(#paint3_linear_1_2564)" stroke-width="10" stroke-linecap="round"/>
<defs>
<linearGradient id="paint0_linear_1_2564" x1="23.4264" y1="50.5375" x2="142.437" y2="94.5397" gradientUnits="userSpaceOnUse">
<stop stop-color="#FD749B"/>
<stop offset="1" stop-color="#281AC8"/>
</linearGradient>
<linearGradient id="paint1_linear_1_2564" x1="58.7711" y1="50.2224" x2="75.3651" y2="-18.6748" gradientUnits="userSpaceOnUse">
<stop stop-color="#FD749B"/>
<stop offset="1" stop-color="#281AC8"/>
</linearGradient>
<linearGradient id="paint2_linear_1_2564" x1="11.9125" y1="51.4273" x2="21.5736" y2="80.0491" gradientUnits="userSpaceOnUse">
<stop stop-color="#FC58B3"/>
<stop offset="1" stop-color="#FEAE68"/>
</linearGradient>
<linearGradient id="paint3_linear_1_2564" x1="49.3395" y1="-5.15002" x2="54.4006" y2="153.766" gradientUnits="userSpaceOnUse">
<stop stop-color="#FD749B"/>
<stop offset="1" stop-color="#281AC8"/>
</linearGradient>
</defs>
</svg>
